<svg width="648" height="637" viewBox="0 0 648 637" fill="none" xmlns="http://www.w3.org/2000/svg">
<g opacity="0.6" filter="url(#filter0_b_386_5802)">
<rect x="94" y="4" width="60" height="60" rx="30" fill="#0BB9EC"/>
</g>
<path d="M116 29L110 34L116 39" stroke="#023C4D" stroke-width="2" stroke-linecap="round" stroke-linejoin="round"/>
<path d="M132 29L138 34L132 39" stroke="#023C4D" stroke-width="2" stroke-linecap="round" stroke-linejoin="round"/>
<path d="M128 23L120 45" stroke="#023C4D" stroke-width="2" stroke-linecap="round" stroke-linejoin="round"/>
<g opacity="0.6" filter="url(#filter1_b_386_5802)">
<rect x="588" y="517" width="60" height="60" rx="30" fill="#EBD189"/>
</g>
<path d="M612 536C604 536 612 547 604 547C612 547 604 558 612 558" stroke="#FFEFC2" stroke-width="2" stroke-linecap="round" stroke-linejoin="round"/>
<path d="M624 536C632 536 624 547 632 547C624 547 632 558 624 558" stroke="#FFEFC2" stroke-width="2" stroke-linecap="round" stroke-linejoin="round"/>
<g opacity="0.6" filter="url(#filter2_b_386_5802)">
<rect x="583" width="60" height="60" rx="30" fill="#C67A59"/>
</g>
<path d="M606 26.5H601C600.448 26.5 600 26.9477 600 27.5V32.5C600 33.0523 600.448 33.5 601 33.5H606C606.552 33.5 607 33.0523 607 32.5V27.5C607 26.9477 606.552 26.5 606 26.5Z" stroke="#FFD3BF" stroke-width="2" stroke-linecap="round" stroke-linejoin="round"/>
<path d="M624 19H618C617.448 19 617 19.4477 617 20V26C617 26.5523 617.448 27 618 27H624C624.552 27 625 26.5523 625 26V20C625 19.4477 624.552 19 624 19Z" stroke="#FFD3BF" stroke-width="2" stroke-linecap="round" stroke-linejoin="round"/>
<path d="M624 33H618C617.448 33 617 33.4477 617 34V40C617 40.5523 617.448 41 618 41H624C624.552 41 625 40.5523 625 40V34C625 33.4477 624.552 33 624 33Z" stroke="#FFD3BF" stroke-width="2" stroke-linecap="round" stroke-linejoin="round"/>
<path d="M607 30H612" stroke="#FFD3BF" stroke-width="2" stroke-linecap="round" stroke-linejoin="round"/>
<path d="M617 37H615C614.606 37.0017 614.215 36.9252 613.85 36.775C613.485 36.6249 613.154 36.4039 612.875 36.125C612.596 35.8461 612.375 35.5148 612.225 35.15C612.075 34.7853 611.998 34.3945 612 34V26C611.998 25.6056 612.075 25.2147 612.225 24.85C612.375 24.4853 612.596 24.1539 612.875 23.875C613.154 23.5961 613.485 23.3752 613.85 23.225C614.215 23.0748 614.606 22.9984 615 23H617" stroke="#FFD3BF" stroke-width="2" stroke-linecap="round" stroke-linejoin="round"/>
<g opacity="0.6" filter="url(#filter3_b_386_5802)">
<rect x="218" y="577" width="60" height="60" rx="30" fill="#53399D"/>
</g>
<path d="M251.5 603.5H244.5V610.5H251.5V603.5Z" stroke="#DFD3FF" stroke-width="2" stroke-linecap="round" stroke-linejoin="round"/>
<path d="M257 597H239C238.448 597 238 597.448 238 598V616C238 616.552 238.448 617 239 617H257C257.552 617 258 616.552 258 616V598C258 597.448 257.552 597 257 597Z" stroke="#DFD3FF" stroke-width="2" stroke-linecap="round" stroke-linejoin="round"/>
<path d="M258 604H261" stroke="#DFD3FF" stroke-width="2" stroke-linecap="round" stroke-linejoin="round"/>
<path d="M258 610H261" stroke="#DFD3FF" stroke-width="2" stroke-linecap="round" stroke-linejoin="round"/>
<path d="M235 604H238" stroke="#DFD3FF" stroke-width="2" stroke-linecap="round" stroke-linejoin="round"/>
<path d="M235 610H238" stroke="#DFD3FF" stroke-width="2" stroke-linecap="round" stroke-linejoin="round"/>
<path d="M251 617V620" stroke="#DFD3FF" stroke-width="2" stroke-linecap="round" stroke-linejoin="round"/>
<path d="M245 617V620" stroke="#DFD3FF" stroke-width="2" stroke-linecap="round" stroke-linejoin="round"/>
<path d="M251 594V597" stroke="#DFD3FF" stroke-width="2" stroke-linecap="round" stroke-linejoin="round"/>
<path d="M245 594V597" stroke="#DFD3FF" stroke-width="2" stroke-linecap="round" stroke-linejoin="round"/>
<g opacity="0.6" filter="url(#filter4_b_386_5802)">
<rect y="286" width="60" height="60" rx="30" fill="#5D74C7"/>
</g>
<path d="M33.5 312.5H26.5V319.5H33.5V312.5Z" stroke="#DFD3FF" stroke-width="2" stroke-linecap="round" stroke-linejoin="round"/>
<path d="M39 306H21C20.4477 306 20 306.448 20 307V325C20 325.552 20.4477 326 21 326H39C39.5523 326 40 325.552 40 325V307C40 306.448 39.5523 306 39 306Z" stroke="#DFD3FF" stroke-width="2" stroke-linecap="round" stroke-linejoin="round"/>
<path d="M40 313H43" stroke="#DFD3FF" stroke-width="2" stroke-linecap="round" stroke-linejoin="round"/>
<path d="M40 319H43" stroke="#DFD3FF" stroke-width="2" stroke-linecap="round" stroke-linejoin="round"/>
<path d="M17 313H20" stroke="#DFD3FF" stroke-width="2" stroke-linecap="round" stroke-linejoin="round"/>
<path d="M17 319H20" stroke="#DFD3FF" stroke-width="2" stroke-linecap="round" stroke-linejoin="round"/>
<path d="M33 326V329" stroke="#DFD3FF" stroke-width="2" stroke-linecap="round" stroke-linejoin="round"/>
<path d="M27 326V329" stroke="#DFD3FF" stroke-width="2" stroke-linecap="round" stroke-linejoin="round"/>
<path d="M33 303V306" stroke="#DFD3FF" stroke-width="2" stroke-linecap="round" stroke-linejoin="round"/>
<path d="M27 303V306" stroke="#DFD3FF" stroke-width="2" stroke-linecap="round" stroke-linejoin="round"/>
<defs>
<filter id="filter0_b_386_5802" x="-706" y="-796" width="1660" height="1660" filterUnits="userSpaceOnUse" color-interpolation-filters="sRGB">
<feFlood flood-opacity="0" result="BackgroundImageFix"/>
<feGaussianBlur in="BackgroundImageFix" stdDeviation="400"/>
<feComposite in2="SourceAlpha" operator="in" result="effect1_backgroundBlur_386_5802"/>
<feBlend mode="normal" in="SourceGraphic" in2="effect1_backgroundBlur_386_5802" result="shape"/>
</filter>
<filter id="filter1_b_386_5802" x="-212" y="-283" width="1660" height="1660" filterUnits="userSpaceOnUse" color-interpolation-filters="sRGB">
<feFlood flood-opacity="0" result="BackgroundImageFix"/>
<feGaussianBlur in="BackgroundImageFix" stdDeviation="400"/>
<feComposite in2="SourceAlpha" operator="in" result="effect1_backgroundBlur_386_5802"/>
<feBlend mode="normal" in="SourceGraphic" in2="effect1_backgroundBlur_386_5802" result="shape"/>
</filter>
<filter id="filter2_b_386_5802" x="-217" y="-800" width="1660" height="1660" filterUnits="userSpaceOnUse" color-interpolation-filters="sRGB">
<feFlood flood-opacity="0" result="BackgroundImageFix"/>
<feGaussianBlur in="BackgroundImageFix" stdDeviation="400"/>
<feComposite in2="SourceAlpha" operator="in" result="effect1_backgroundBlur_386_5802"/>
<feBlend mode="normal" in="SourceGraphic" in2="effect1_backgroundBlur_386_5802" result="shape"/>
</filter>
<filter id="filter3_b_386_5802" x="-582" y="-223" width="1660" height="1660" filterUnits="userSpaceOnUse" color-interpolation-filters="sRGB">
<feFlood flood-opacity="0" result="BackgroundImageFix"/>
<feGaussianBlur in="BackgroundImageFix" stdDeviation="400"/>
<feComposite in2="SourceAlpha" operator="in" result="effect1_backgroundBlur_386_5802"/>
<feBlend mode="normal" in="SourceGraphic" in2="effect1_backgroundBlur_386_5802" result="shape"/>
</filter>
<filter id="filter4_b_386_5802" x="-800" y="-514" width="1660" height="1660" filterUnits="userSpaceOnUse" color-interpolation-filters="sRGB">
<feFlood flood-opacity="0" result="BackgroundImageFix"/>
<feGaussianBlur in="BackgroundImageFix" stdDeviation="400"/>
<feComposite in2="SourceAlpha" operator="in" result="effect1_backgroundBlur_386_5802"/>
<feBlend mode="normal" in="SourceGraphic" in2="effect1_backgroundBlur_386_5802" result="shape"/>
</filter>
</defs>
</svg>
