<svg xmlns="http://www.w3.org/2000/svg" width="24" height="24" viewBox="0 0 24 24" fill="none">
<path d="M4.22814 18.375C4.25213 18.4736 4.29564 18.5664 4.35609 18.6479C4.41654 18.7294 4.49272 18.798 4.58011 18.8495C4.66751 18.9011 4.76435 18.9346 4.86492 18.9481C4.96548 18.9616 5.06774 18.9548 5.16564 18.9282C9.63469 17.6907 14.356 17.6907 18.825 18.9282C18.9229 18.9548 19.0252 18.9616 19.1257 18.9481C19.2263 18.9346 19.3232 18.9011 19.4105 18.8495C19.4979 18.798 19.5741 18.7294 19.6346 18.6479C19.695 18.5664 19.7385 18.4736 19.7625 18.375L22.1531 8.2219C22.186 8.086 22.1801 7.94364 22.1364 7.81086C22.0926 7.67809 22.0125 7.56021 21.9053 7.47051C21.798 7.38082 21.6678 7.32289 21.5294 7.30325C21.391 7.28362 21.2498 7.30307 21.1219 7.35941L16.3781 9.46878C16.2063 9.54446 16.0124 9.55376 15.8341 9.49489C15.6558 9.43603 15.5056 9.31316 15.4125 9.15003L12.6563 4.18128C12.5914 4.06405 12.4963 3.96634 12.3809 3.8983C12.2655 3.83026 12.134 3.79437 12 3.79437C11.866 3.79437 11.7345 3.83026 11.6191 3.8983C11.5037 3.96634 11.4086 4.06405 11.3438 4.18128L8.58752 9.15003C8.49447 9.31316 8.34427 9.43603 8.16593 9.49489C7.9876 9.55376 7.79377 9.54446 7.62189 9.46878L2.87814 7.35941C2.75019 7.30307 2.60903 7.28362 2.47061 7.30325C2.33218 7.32289 2.20201 7.38082 2.09476 7.47051C1.98752 7.56021 1.90748 7.67809 1.86368 7.81086C1.81988 7.94364 1.81407 8.086 1.84689 8.2219L4.22814 18.375Z" stroke="white" stroke-width="2" stroke-linecap="round" stroke-linejoin="round"/>
</svg>