<svg xmlns="http://www.w3.org/2000/svg" width="20" height="20" viewBox="0 0 20 20" fill="none">
  <g clip-path="url(#clip0_4_3728)">
    <path d="M6.66667 0H2.5C1.83696 0 1.20107 0.263392 0.732233 0.732233C0.263392 1.20107 0 1.83696 0 2.5L0 6.66667H2.5L2.4825 9.16667L4.14917 9.175L4.16667 6.66667H6.66667V4.15333L9.16667 4.16667L9.175 2.5L6.66667 2.48667V0ZM5 5H1.66667V2.5C1.66667 2.27899 1.75446 2.06702 1.91074 1.91074C2.06702 1.75446 2.27899 1.66667 2.5 1.66667H5V5Z" fill="#7A7A7A"/>
    <path d="M17.5001 0H13.3334V2.5L10.8376 2.48667L10.8292 4.15333L13.3334 4.16667V6.66667H15.8459L15.8334 9.16667L17.5001 9.175L17.5126 6.66667H20.0001V2.5C20.0001 1.83696 19.7367 1.20107 19.2678 0.732233C18.799 0.263392 18.1631 0 17.5001 0V0ZM18.3334 5H15.0001V1.66667H17.5001C17.7211 1.66667 17.933 1.75446 18.0893 1.91074C18.2456 2.06702 18.3334 2.27899 18.3334 2.5V5Z" fill="#7A7A7A"/>
    <path d="M17.5174 10.8376L15.8507 10.8292L15.8374 13.3334H13.3332V15.8467L10.8374 15.8334L10.8332 17.5001L13.3332 17.5134V20.0001H17.4999C18.1629 20.0001 18.7988 19.7367 19.2676 19.2678C19.7365 18.799 19.9999 18.1631 19.9999 17.5001V13.3334H17.4999L17.5174 10.8376ZM18.3332 17.5001C18.3332 17.7211 18.2454 17.933 18.0891 18.0893C17.9328 18.2456 17.7209 18.3334 17.4999 18.3334H14.9999V15.0001H18.3332V17.5001Z" fill="#7A7A7A"/>
    <path d="M6.66666 13.3328H4.15416L4.16666 10.837L2.49999 10.8328L2.48749 13.3328H-6.4373e-06V17.4995C-6.4373e-06 18.1625 0.263386 18.7984 0.732227 19.2672C1.20107 19.7361 1.83695 19.9995 2.49999 19.9995H6.66666V17.4995L9.16666 17.517L9.17499 15.8503L6.66666 15.837V13.3328ZM4.99999 18.3328H2.49999C2.27898 18.3328 2.06702 18.245 1.91074 18.0887C1.75446 17.9325 1.66666 17.7205 1.66666 17.4995V14.9995H4.99999V18.3328Z" fill="#7A7A7A"/>
  </g>
  <defs>
    <clipPath id="clip0_4_3728">
      <rect width="20" height="20" fill="white"/>
    </clipPath>
  </defs>
</svg>