<svg width="25" height="24" viewBox="0 0 25 24" fill="none" xmlns="http://www.w3.org/2000/svg">
<g clip-path="url(#clip0_565_1403)">
<path d="M24.5 12.0003C24.5 5.37285 19.1274 0.000270844 12.5 0.000270844C5.87258 0.000270844 0.5 5.37285 0.5 12.0003C0.5 17.9898 4.88823 22.9543 10.625 23.8545V15.469H7.57813V12.0003H10.625V9.35652C10.625 6.34902 12.4165 4.68777 15.1576 4.68777C16.4705 4.68777 17.8438 4.92215 17.8438 4.92215V7.87527H16.3306C14.8399 7.87527 14.375 8.80028 14.375 9.74926V12.0003H17.7031L17.1711 15.469H14.375V23.8545C20.1118 22.9543 24.5 17.9898 24.5 12.0003Z" fill="#1877F2"/>
<path d="M17.1711 15.4688L17.7031 12H14.375V9.74899C14.375 8.80001 14.8399 7.875 16.3306 7.875H17.8438V4.92188C17.8438 4.92188 16.4705 4.6875 15.1576 4.6875C12.4165 4.6875 10.625 6.34875 10.625 9.35625V12H7.57812V15.4688H10.625V23.8542C11.2359 23.9501 11.8621 24 12.5 24C13.1379 24 13.7641 23.9501 14.375 23.8542V15.4688H17.1711Z" fill="white"/>
</g>
<defs>
<clipPath id="clip0_565_1403">
<rect width="24" height="24" fill="white" transform="translate(0.5)"/>
</clipPath>
</defs>
</svg>
