<svg xmlns="http://www.w3.org/2000/svg" width="20" height="20" viewBox="0 0 20 20" fill="none">
  <g clip-path="url(#clip0_4_3742)">
    <path d="M17.5 0.833374H2.5C1.83696 0.833374 1.20107 1.09677 0.732233 1.56561C0.263392 2.03445 0 2.67033 0 3.33337L0 19.1667H20V3.33337C20 2.67033 19.7366 2.03445 19.2678 1.56561C18.7989 1.09677 18.163 0.833374 17.5 0.833374ZM2.5 2.50004H17.5C17.721 2.50004 17.933 2.58784 18.0893 2.74412C18.2455 2.9004 18.3333 3.11236 18.3333 3.33337V5.83337H1.66667V3.33337C1.66667 3.11236 1.75446 2.9004 1.91074 2.74412C2.06702 2.58784 2.27899 2.50004 2.5 2.50004ZM1.66667 17.5V7.50004H18.3333V17.5H1.66667ZM4.16667 10H15.8333V11.6667H4.16667V10ZM4.16667 13.3334H12.5V15H4.16667V13.3334ZM2.5 4.16671C2.5 4.00189 2.54887 3.84077 2.64044 3.70373C2.73201 3.56669 2.86216 3.45988 3.01443 3.39681C3.1667 3.33373 3.33426 3.31723 3.49591 3.34939C3.65756 3.38154 3.80605 3.46091 3.92259 3.57745C4.03913 3.694 4.1185 3.84248 4.15065 4.00413C4.18281 4.16578 4.16631 4.33334 4.10323 4.48561C4.04016 4.63788 3.93335 4.76803 3.79631 4.8596C3.65927 4.95117 3.49815 5.00004 3.33333 5.00004C3.11232 5.00004 2.90036 4.91224 2.74408 4.75596C2.5878 4.59968 2.5 4.38772 2.5 4.16671ZM5 4.16671C5 4.00189 5.04887 3.84077 5.14044 3.70373C5.23201 3.56669 5.36216 3.45988 5.51443 3.39681C5.6667 3.33373 5.83426 3.31723 5.99591 3.34939C6.15756 3.38154 6.30605 3.46091 6.42259 3.57745C6.53913 3.694 6.6185 3.84248 6.65065 4.00413C6.68281 4.16578 6.66631 4.33334 6.60323 4.48561C6.54016 4.63788 6.43335 4.76803 6.29631 4.8596C6.15927 4.95117 5.99815 5.00004 5.83333 5.00004C5.61232 5.00004 5.40036 4.91224 5.24408 4.75596C5.0878 4.59968 5 4.38772 5 4.16671ZM7.5 4.16671C7.5 4.00189 7.54887 3.84077 7.64044 3.70373C7.73201 3.56669 7.86216 3.45988 8.01443 3.39681C8.1667 3.33373 8.33426 3.31723 8.49591 3.34939C8.65756 3.38154 8.80604 3.46091 8.92259 3.57745C9.03913 3.694 9.1185 3.84248 9.15065 4.00413C9.18281 4.16578 9.16631 4.33334 9.10323 4.48561C9.04016 4.63788 8.93335 4.76803 8.79631 4.8596C8.65927 4.95117 8.49815 5.00004 8.33333 5.00004C8.11232 5.00004 7.90036 4.91224 7.74408 4.75596C7.5878 4.59968 7.5 4.38772 7.5 4.16671Z" fill="#475569"/>
  </g>
  <defs>
    <clipPath id="clip0_4_3742">
      <rect width="20" height="20" fill="white"/>
    </clipPath>
  </defs>
</svg>