<svg width="24" height="24" viewBox="0 0 24 24" fill="none" xmlns="http://www.w3.org/2000/svg">
<path d="M22.56 12.25C22.56 11.47 22.49 10.72 22.36 10H12V14.255H17.92C17.665 15.63 16.89 16.795 15.725 17.575V20.335H19.28C21.36 18.42 22.56 15.6 22.56 12.25Z" fill="#4285F4"/>
<path d="M11.9999 22.9998C14.9699 22.9998 17.4599 22.0148 19.2799 20.3348L15.7249 17.5748C14.7399 18.2348 13.4799 18.6248 11.9999 18.6248C9.13492 18.6248 6.70992 16.6898 5.84492 14.0898H2.16992V16.9398C3.97992 20.5348 7.69992 22.9998 11.9999 22.9998Z" fill="#34A853"/>
<path d="M5.845 14.0896C5.625 13.4296 5.5 12.7246 5.5 11.9996C5.5 11.2746 5.625 10.5696 5.845 9.90957V7.05957H2.17C1.4 8.59243 0.999321 10.2842 1 11.9996C1 13.7746 1.425 15.4546 2.17 16.9396L5.845 14.0896Z" fill="#FBBC05"/>
<path d="M11.9999 5.375C13.6149 5.375 15.0649 5.93 16.2049 7.02L19.3599 3.865C17.4549 2.09 14.9649 1 11.9999 1C7.69992 1 3.97992 3.465 2.16992 7.06L5.84492 9.91C6.70992 7.31 9.13492 5.375 11.9999 5.375Z" fill="#EA4335"/>
</svg>
