<svg width="24" height="24" viewBox="0 0 24 24" fill="none" xmlns="http://www.w3.org/2000/svg">
<path d="M12 16.5C14.4853 16.5 16.5 14.4853 16.5 12C16.5 9.51472 14.4853 7.5 12 7.5C9.51472 7.5 7.5 9.51472 7.5 12C7.5 14.4853 9.51472 16.5 12 16.5Z" stroke="#ECF7FF" stroke-width="2" stroke-linecap="round" stroke-linejoin="round"/>
<path d="M18.5063 7.56523C18.732 7.88836 18.9296 8.23024 19.0969 8.58711L21.525 9.93711C21.8282 11.2951 21.8314 12.7028 21.5344 14.0621L19.0969 15.4121C18.9296 15.769 18.732 16.1109 18.5063 16.434L18.5532 19.2184C17.5241 20.1561 16.3062 20.8625 14.9813 21.2902L12.5907 19.8559C12.1974 19.884 11.8026 19.884 11.4094 19.8559L9.02815 21.2809C7.69907 20.861 6.47711 20.1572 5.4469 19.2184L5.49378 16.4434C5.26997 16.1158 5.07247 15.7709 4.90315 15.4121L2.47503 14.0621C2.17184 12.7042 2.16864 11.2964 2.46565 9.93711L4.90315 8.58711C5.07048 8.23024 5.26808 7.88836 5.49378 7.56523L5.4469 4.78086C6.47595 3.84314 7.69388 3.13667 9.01878 2.70898L11.4094 4.14336C11.8026 4.11523 12.1974 4.11523 12.5907 4.14336L14.9719 2.71836C16.301 3.13826 17.5229 3.842 18.5532 4.78086L18.5063 7.56523Z" stroke="#ECF7FF" stroke-width="2" stroke-linecap="round" stroke-linejoin="round"/>
</svg>
