<svg width="25" height="24" viewBox="0 0 25 24" fill="none" xmlns="http://www.w3.org/2000/svg">
<g clip-path="url(#clip0_601_960)">
<path d="M12.5 0C5.71437 0 0.211914 5.50144 0.211914 12.2881C0.211914 17.7173 3.73283 22.3234 8.61527 23.9482C9.22939 24.062 9.45485 23.6817 9.45485 23.3571C9.45485 23.0641 9.44345 22.0961 9.43816 21.0693C6.0196 21.8127 5.29825 19.6195 5.29825 19.6195C4.73927 18.1992 3.93387 17.8215 3.93387 17.8215C2.81897 17.0588 4.01791 17.0745 4.01791 17.0745C5.25185 17.1612 5.90158 18.3408 5.90158 18.3408C6.99756 20.2194 8.77623 19.6763 9.47744 19.3623C9.58773 18.5681 9.90618 18.026 10.2576 17.7191C7.52825 17.4084 4.6591 16.3548 4.6591 11.6463C4.6591 10.3047 5.13912 9.20855 5.92519 8.34801C5.7976 8.0385 5.37699 6.78869 6.04422 5.0961C6.04422 5.0961 7.0761 4.76584 9.42433 6.35568C10.4045 6.08341 11.4557 5.94687 12.5 5.94219C13.5443 5.94687 14.5963 6.08341 15.5783 6.35568C17.9237 4.76584 18.9542 5.0961 18.9542 5.0961C19.623 6.78869 19.2022 8.0385 19.0746 8.34801C19.8625 9.20855 20.3393 10.3047 20.3393 11.6463C20.3393 16.366 17.4647 17.4052 14.7284 17.7094C15.1691 18.0907 15.5619 18.8385 15.5619 19.985C15.5619 21.6291 15.5476 22.9524 15.5476 23.3571C15.5476 23.6841 15.7688 24.0673 16.3917 23.9466C21.2715 22.32 24.7879 17.7155 24.7879 12.2881C24.7879 5.50144 19.2863 0 12.5 0ZM4.81421 17.5047C4.78714 17.5657 4.6911 17.584 4.6036 17.5421C4.51447 17.502 4.46442 17.4188 4.49331 17.3575C4.51976 17.2947 4.61601 17.2772 4.70494 17.3193C4.79427 17.3594 4.84514 17.4434 4.81421 17.5047ZM5.41865 18.044C5.36004 18.0983 5.24548 18.0731 5.16775 17.9872C5.08737 17.9016 5.07231 17.787 5.13173 17.7318C5.19217 17.6775 5.30327 17.7029 5.38385 17.7886C5.46423 17.8753 5.4799 17.989 5.41865 18.044ZM5.83331 18.734C5.75802 18.7863 5.63491 18.7373 5.55881 18.628C5.48352 18.5188 5.48352 18.3877 5.56044 18.3352C5.63675 18.2827 5.75802 18.3299 5.83514 18.4384C5.91023 18.5495 5.91023 18.6805 5.83331 18.734ZM6.5346 19.5332C6.46725 19.6075 6.32379 19.5876 6.21879 19.4862C6.11135 19.3871 6.08144 19.2465 6.149 19.1722C6.21717 19.0978 6.36144 19.1187 6.46725 19.2193C6.57388 19.3181 6.60643 19.4598 6.5346 19.5332ZM7.44096 19.803C7.41125 19.8993 7.27308 19.943 7.1339 19.9021C6.99491 19.86 6.90396 19.7473 6.93204 19.65C6.96093 19.5531 7.09971 19.5076 7.23991 19.5513C7.37869 19.5932 7.46985 19.7052 7.44096 19.803ZM8.47242 19.9175C8.47588 20.0188 8.35786 20.1028 8.21176 20.1047C8.06484 20.1079 7.946 20.0259 7.94438 19.9262C7.94438 19.8239 8.05975 19.7406 8.20667 19.7382C8.35277 19.7353 8.47242 19.8167 8.47242 19.9175ZM9.48572 19.8786C9.50322 19.9775 9.40168 20.0791 9.2566 20.1061C9.11395 20.1322 8.98189 20.0711 8.96378 19.973C8.94608 19.8717 9.04945 19.7702 9.19189 19.7439C9.33718 19.7187 9.4672 19.7781 9.48572 19.8786Z" fill="#161614"/>
</g>
<defs>
<clipPath id="clip0_601_960">
<rect width="24.576" height="24" fill="white" transform="translate(0.211914)"/>
</clipPath>
</defs>
</svg>
