<svg width="21" height="22" viewBox="0 0 21 22" fill="none" xmlns="http://www.w3.org/2000/svg">
<path d="M17.6447 18.0738H14.6378V13.4113C14.6378 12.2995 14.6178 10.8682 13.0739 10.8682C11.5078 10.8682 11.2682 12.0796 11.2682 13.3303V18.0735H8.26131V8.48545H11.1479V9.79576H11.1883C11.4772 9.30669 11.8947 8.90437 12.3962 8.63162C12.8978 8.35888 13.4646 8.22594 14.0364 8.24696C17.084 8.24696 17.646 10.2318 17.646 12.814L17.6447 18.0738ZM4.86854 7.17483C4.52343 7.17489 4.18604 7.07362 3.89905 6.88382C3.61206 6.69403 3.38838 6.42423 3.25625 6.10855C3.12412 5.79286 3.08949 5.44548 3.15676 5.11032C3.22403 4.77515 3.39017 4.46727 3.63416 4.22559C3.87815 3.98392 4.18904 3.81931 4.52751 3.75259C4.86598 3.68586 5.21683 3.72001 5.5357 3.85073C5.85457 3.98144 6.12713 4.20284 6.31891 4.48693C6.5107 4.77103 6.61311 5.10505 6.61317 5.44677C6.61321 5.67366 6.56811 5.89834 6.48046 6.10797C6.3928 6.31761 6.26432 6.5081 6.10232 6.66856C5.94031 6.82903 5.74796 6.95633 5.53627 7.04319C5.32458 7.13006 5.09769 7.17479 4.86854 7.17483ZM6.37198 18.0738H3.36197V8.48545H6.37198V18.0738ZM19.1438 0.954494H1.85101C1.45852 0.950108 1.0803 1.10019 0.799503 1.37177C0.518708 1.64334 0.358306 2.01419 0.353516 2.40281V19.5963C0.358142 19.9851 0.51845 20.3562 0.799235 20.628C1.08002 20.8999 1.45832 21.0503 1.85101 21.0461H19.1438C19.5372 21.051 19.9166 20.9011 20.1985 20.6292C20.4804 20.3574 20.6417 19.9859 20.6472 19.5963V2.40157C20.6416 2.01218 20.4801 1.64091 20.1982 1.36934C19.9163 1.09777 19.537 0.948117 19.1438 0.953253" fill="#0A66C2"/>
</svg>
