<svg width="31" height="24" viewBox="0 0 31 24" fill="none" xmlns="http://www.w3.org/2000/svg">
<path d="M27.0014 6.03374C27.019 6.28903 27.019 6.54433 27.019 6.80197C27.019 14.6526 21.0541 23.7067 10.1471 23.7067V23.702C6.92506 23.7067 3.77 22.782 1.05762 21.0384C1.52612 21.0949 1.99697 21.1231 2.469 21.1243C5.13911 21.1267 7.73291 20.229 9.83354 18.5761C7.29611 18.5279 5.07101 16.8702 4.29369 14.4502C5.18256 14.622 6.09843 14.5867 6.97086 14.3479C4.20446 13.7879 2.2142 11.3526 2.2142 8.52433C2.2142 8.49844 2.2142 8.47374 2.2142 8.44903C3.03848 8.90903 3.9614 9.16433 4.90545 9.19256C2.29991 7.44785 1.49677 3.97491 3.07018 1.25962C6.08082 4.97138 10.5228 7.22785 15.2912 7.46668C14.8133 5.40315 15.4661 3.2408 17.0067 1.79021C19.395 -0.459204 23.1512 -0.34391 25.3963 2.04785C26.7243 1.7855 27.9971 1.29727 29.1619 0.605502C28.7193 1.9808 27.7928 3.14903 26.5552 3.89138C27.7306 3.75256 28.879 3.43727 29.9604 2.95609C29.1643 4.15138 28.1615 5.19256 27.0014 6.03374Z" fill="#1D9BF0"/>
</svg>
