<svg xmlns="http://www.w3.org/2000/svg" width="20" height="20" viewBox="0 0 20 20" fill="none">
  <g clip-path="url(#clip0_4_3717)">
    <path d="M17.5 20H2.5C1.83696 20 1.20107 19.7366 0.732233 19.2678C0.263392 18.7989 0 18.163 0 17.5L0 10H6.66667V11.6667C6.66667 12.1087 6.84226 12.5326 7.15482 12.8452C7.46738 13.1577 7.89131 13.3333 8.33333 13.3333H11.6667C12.1087 13.3333 12.5326 13.1577 12.8452 12.8452C13.1577 12.5326 13.3333 12.1087 13.3333 11.6667V10H20V17.5C20 18.163 19.7366 18.7989 19.2678 19.2678C18.7989 19.7366 18.163 20 17.5 20ZM1.66667 11.6667V17.5C1.66667 17.721 1.75446 17.933 1.91074 18.0893C2.06702 18.2455 2.27899 18.3333 2.5 18.3333H17.5C17.721 18.3333 17.933 18.2455 18.0893 18.0893C18.2455 17.933 18.3333 17.721 18.3333 17.5V11.6667H15C15 12.5507 14.6488 13.3986 14.0237 14.0237C13.3986 14.6488 12.5507 15 11.6667 15H8.33333C7.44928 15 6.60143 14.6488 5.97631 14.0237C5.35119 13.3986 5 12.5507 5 11.6667H1.66667Z" fill="#7A7A7A"/>
    <path d="M18.3335 6.66724H1.66679V8.3339H18.3335V6.66724Z" fill="#7A7A7A"/>
    <path d="M18.3335 3.33362H1.66679V5.00028H18.3335V3.33362Z" fill="#7A7A7A"/>
  </g>
  <defs>
    <clipPath id="clip0_4_3717">
      <rect width="20" height="20" fill="white"/>
    </clipPath>
  </defs>
</svg>