<svg width="24" height="24" viewBox="0 0 24 24" fill="none" xmlns="http://www.w3.org/2000/svg">
<g clip-path="url(#clip0_4_3791)">
<path d="M14.0811 5.586L0.900123 18.769C0.358542 19.3497 0.0635648 20.118 0.0773596 20.912C0.0911544 21.7059 0.412644 22.4635 0.974072 23.0251C1.5355 23.5866 2.29301 23.9083 3.08696 23.9223C3.88091 23.9362 4.64928 23.6415 5.23012 23.1L18.4141 9.919L14.0811 5.586ZM15.5861 9.919L13.0001 12.505L11.5001 11L14.0861 8.414L15.5861 9.919ZM3.81612 21.688C3.61397 21.8807 3.3454 21.9882 3.06612 21.9882C2.78684 21.9882 2.51828 21.8807 2.31612 21.688C2.11754 21.4889 2.00602 21.2192 2.00602 20.938C2.00602 20.6568 2.11754 20.3871 2.31612 20.188L10.0851 12.418L11.5901 13.923L3.81612 21.688ZM21.3331 14.628L24.0001 15.962L21.3331 17.3L20.0001 19.962L18.6671 17.3L16.0001 15.962L18.6671 14.628L20.0001 11.962L21.3331 14.628ZM6.66712 5.333L4.00012 4L6.66712 2.667L8.00012 0L9.33312 2.667L12.0001 4L9.33312 5.333L8.00012 8L6.66712 5.333ZM19.3331 4.667L17.0001 3.5L19.3331 2.333L20.5001 0L21.6671 2.333L24.0001 3.5L21.6671 4.667L20.5001 7L19.3331 4.667Z" fill="white"/>
</g>
<defs>
<clipPath id="clip0_4_3791">
<rect width="24" height="24" fill="white"/>
</clipPath>
</defs>
</svg>
